<?xml version="1.0" encoding="utf-8"?>
<!-- Generator: Adobe Illustrator 19.2.0, SVG Export Plug-In . SVG Version: 6.00 Build 0)  -->
<svg version="1.1" id="Layer_1" xmlns="http://www.w3.org/2000/svg" xmlns:xlink="http://www.w3.org/1999/xlink" x="0px" y="0px"
	 viewBox="0 0 111 38.7" style="enable-background:new 0 0 111 38.7;" xml:space="preserve">
<style type="text/css">
	.st0{fill:#010101;}
	.st1{fill:#010101;stroke:#F9F9F9;stroke-miterlimit:10;}
	.st2{fill:#FFFFFF;}
</style>
<g>
	<path class="st0" d="M110.5,32.7c0,3.3-2.5,5.4-5.8,5.4H6.5c-3.3,0-6-2.7-6-6.1V6.6c0-3.3,2.7-6.1,6-6.1h98.2
		c3.3,0,5.8,2.7,5.8,6.1V32.7z"/>
	<path class="st1" d="M110.5,32.7c0,3.3-2.5,5.4-5.8,5.4H6.5c-3.3,0-6-2.7-6-6.1V6.6c0-3.3,2.7-6.1,6-6.1h98.2
		c3.3,0,5.8,2.7,5.8,6.1V32.7z"/>
	<g>
		<g>
			<path class="st2" d="M41.8,16.1v-3.9h0.4v3.5H44v0.4H41.8z"/>
			<path class="st2" d="M45.6,16.1v-3.9H46v3.9H45.6z"/>
			<path class="st2" d="M49,16.2c-0.7,0-1.1-0.4-1.2-0.6l0.3-0.3c0.3,0.3,0.6,0.5,1,0.5c0.5,0,0.9-0.3,0.9-0.7
				c0-0.4-0.4-0.6-0.8-0.7c-0.6-0.2-1.3-0.4-1.3-1.2c0-0.6,0.5-1.1,1.2-1.1c0.4,0,0.9,0.2,1.1,0.5l-0.3,0.3
				c-0.3-0.3-0.5-0.4-0.8-0.4c-0.5,0-0.8,0.3-0.8,0.6c0,0.4,0.4,0.6,0.7,0.7c0.6,0.2,1.3,0.4,1.3,1.2C50.3,15.7,49.7,16.2,49,16.2z"
				/>
			<path class="st2" d="M53.3,12.6v3.5h-0.4v-3.5h-1.3v-0.4h3v0.4H53.3z"/>
			<path class="st2" d="M56.2,16.1v-3.9h2.6v0.4h-2.2v1.3h1.8v0.4h-1.8v1.4h2.2v0.4H56.2z"/>
			<path class="st2" d="M63.2,16.1l-2.3-3.2h0v3.2h-0.4v-3.9h0.4l2.3,3.2v-3.2h0.4v3.9H63.2z"/>
			<path class="st2" d="M70.8,16.1l-2.3-3.2h0v3.2h-0.4v-3.9h0.4l2.3,3.2v-3.2h0.4v3.9H70.8z"/>
			<path class="st2" d="M75.1,16.2c-1.2,0-2-0.9-2-2.1c0-1.2,0.9-2,2-2c1.2,0,2,0.8,2,2C77.1,15.4,76.2,16.2,75.1,16.2z M75.1,12.5
				c-1,0-1.6,0.8-1.6,1.7c0,0.9,0.6,1.7,1.6,1.7c1,0,1.6-0.7,1.6-1.7C76.6,13.3,76,12.5,75.1,12.5z"/>
			<path class="st2" d="M82.4,16.1H82l-1-3.3h0l-1,3.3h-0.4l-1.2-3.9h0.4l0.9,3.3h0l1-3.3h0.5l1,3.3h0l0.9-3.3h0.4L82.4,16.1z"/>
			<path class="st2" d="M89.5,16.2c-1.2,0-2-0.9-2-2.1c0-1.2,0.9-2,2-2c1.2,0,2,0.8,2,2C91.5,15.4,90.6,16.2,89.5,16.2z M89.5,12.5
				c-1,0-1.6,0.8-1.6,1.7c0,0.9,0.6,1.7,1.6,1.7c1,0,1.6-0.7,1.6-1.7C91.1,13.3,90.4,12.5,89.5,12.5z"/>
			<path class="st2" d="M96,16.1l-2.3-3.2h0v3.2h-0.4v-3.9h0.4l2.3,3.2v-3.2h0.4v3.9H96z"/>
		</g>
		<g>
			<g>
				<path class="st2" d="M46.3,28.1h-2.1v-7.4h-2.7V19H49v1.8h-2.7V28.1z"/>
				<path class="st2" d="M57.3,28.1h-2.1V19h2.1V28.1z"/>
				<path class="st2" d="M94.1,26.3h3.6v1.8H92V19h2.1V26.3z"/>
			</g>
			<path class="st2" d="M64.2,19h3.4c2.5,0,5,1.3,5,4.5c0,3-2.4,4.6-4.9,4.6l-3.5,0V19z M66.2,26.3h1.3c1.7,0,2.9-1.1,2.9-2.8
				c0-1.6-1.2-2.8-2.9-2.8h-1.3V26.3z"/>
			<path class="st2" d="M84.2,28.1h2.3L82.7,19h-2.2l-3.8,9.1H79l0.7-1.8h3.9L84.2,28.1z M80.2,24.7l1.4-3.6l1.4,3.6H80.2z"/>
		</g>
		<g>
			<g>
				<rect x="20" y="13.1" transform="matrix(0.7071 -0.7071 0.7071 0.7071 -4.6588 20.964)" class="st2" width="6" height="6"/>
				<rect x="20" y="21.6" transform="matrix(0.7071 -0.7071 0.7071 0.7071 -10.6603 23.4499)" class="st2" width="6" height="6"/>
				<rect x="11.5" y="13.1" transform="matrix(0.7071 -0.7071 0.7071 0.7071 -7.145 14.962)" class="st2" width="6" height="6"/>
				<rect x="28.5" y="13.1" transform="matrix(0.7071 -0.7071 0.7071 0.7071 -2.1729 26.966)" class="st2" width="6" height="6"/>
			</g>
		</g>
	</g>
</g>
</svg>
